#!OML:ASF I:\salsa\salsa 7_09\Patient 1\Session 1\dancermale.ASF
:FULLY-SPECIFIED
:DEGREES
1316
root -2.60071 16.852 5.11831 -571.096 100.745 -574.277
lowerback -2.06692 1.92 1.88366
upperback -0.620578 2.53915 2.54173
thorax 0.487743 1.28531 1.6117
lowerneck -4.71092 0.555717 2.01242
upperneck 5.66233 0.759419 -2.3316
head 2.63727 0.351939 -1.06895
rclavicle 1.36558e-014 1.6027e-014
rhumerus -7.28889 10.6355 -105.687
rradius 67.881
rwrist 3.04773
rhand 139.899 171.056
rfingers 7.12502
rthumb -13.0653 -38.5151
lclavicle 1.36558e-014 1.6027e-014
lhumerus -1.31905 -12.0483 73.7569
lradius 65.3563
lwrist 49.4792
lhand -22.496 58.1939
lfingers 7.12502
lthumb 3.92982 448.137
rfemur -16.178 -0.438302 31.0086
rtibia 32.9384
rfoot -21.6028 -14.499
rtoes 12.0893
lfemur -35.2845 6.69199 -3.99286
ltibia 28.6115
lfoot 10.4947 5.39595
ltoes 19.8238
1317
root -2.44242 16.8394 5.08849 -567.554 100.709 -570.369
lowerback -2.18323 2.11996 1.22533
upperback -0.482496 2.80817 2.46081
thorax 0.663302 1.41771 1.91112
lowerneck -4.88404 0.488546 2.17171
upperneck 5.71834 0.669695 -2.5463
head 2.68974 0.302844 -1.17099
rclavicle -1.40574e-014 -4.07509e-015
rhumerus -7.20209 10.1094 -106.01
rradius 66.0988
rwrist 1.93529
rhand 139.458 171.971
rfingers 7.12502
rthumb -13.4907 -37.5725
lclavicle -1.40574e-014 -4.07509e-015
lhumerus -0.423605 -12.1145 73.2977
lradius 65.1001
lwrist 48.9745
lhand -21.352 56.9414
lfingers 7.12502
lthumb 5.03443 446.862
rfemur -15.253 -0.618397 30.0031
rtibia 33.0143
rfoot -22.1263 -14.3387
rtoes 11.2132
lfemur -33.4403 6.37478 -4.36024
ltibia 25.6735
lfoot 11.2877 5.83956
ltoes 15.306
1318
root -2.29149 16.8293 5.04935 -564.886 100.487 -567.525
lowerback -2.29535 2.27762 0.772911
upperback -0.517162 3.02505 2.35646
thorax 0.667655 1.52455 2.06632
lowerneck -4.8152 0.245844 2.0296
upperneck 5.57404 0.360764 -2.65004
head 2.61997 0.143304 -1.18991
rclavicle 9.97806e-016 -1.67973e-014
rhumerus -7.21291 9.07295 -106.302
rradius 64.5117
rwrist 0.252223
rhand 139.112 172.705
rfingers 7.12502
rthumb -13.8238 -36.8153
lclavicle 9.97806e-016 -1.67973e-014
lhumerus 0.1927 -12.3829 73.273
lradius 65.0794
lwrist 48.8064
lhand -19.9558 57.8194
lfingers 7.12502
lthumb 6.38252 447.703
rfemur -14.7538 -0.782117 29.0625
rtibia 33.4494
rfoot -22.538 -14.5019
rtoes 9.23851
lfemur -32.3619 6.83575 -5.35559
ltibia 24.883
lfoot 10.5633 5.89094
ltoes 9.69222
1319
root -2.16626 16.8324 5.0026 -564.83 100.066 -567.432
lowerback -2.09544 2.32681 0.680524
upperback -0.706057 3.10312 2.38021
thorax 0.353647 1.56575 2.12939
lowerneck -4.70433 0.131577 2.24553
upperneck 5.67837 0.215984 -2.93484
head 2.63402 0.0683569 -1.32632
rclavicle 3.16686e-014 2.60408e-014
rhumerus -7.27034 7.71931 -106.474
rradius 62.9278
rwrist -1.18771
rhand 138.939 173.264
rfingers 7.12502
rthumb -13.9909 -36.2453
lclavicle 3.16686e-014 2.60408e-014
lhumerus 0.674275 -12.8913 73.7235
lradius 64.7806
lwrist 49.1307
lhand -21.0155 57.3637
lfingers 7.12502
lthumb 5.35942 447.276
rfemur -14.7365 -0.881291 28.6051
rtibia 34.3603
rfoot -23.1798 -15.0629
rtoes 7.33273
lfemur -32.1769 7.86723 -6.49377
ltibia 25.9361
lfoot 8.94992 6.05049
ltoes 4.72524
1320
root -2.03814 16.8308 4.94794 -563.961 99.3353 -566.612
lowerback -1.98072 2.32213 0.408195
upperback -0.931447 3.11015 2.32408
thorax 0.0469509 1.57177 2.21219
lowerneck -4.86432 -0.0535153 1.9011
upperneck 5.93633 -0.00949351 -2.82233
head 2.7415 -0.0486982 -1.24072
rclavicle 2.20899e-014 2.20651e-014
rhumerus -7.45147 6.12445 -106.603
rradius 61.4028
rwrist -1.7834
rhand 138.667 174.569
rfingers 7.12502
rthumb -14.2529 -34.9216
lclavicle 2.20899e-014 2.20651e-014
lhumerus 1.2226 -13.1526 74.6732
lradius 64.2823
lwrist 48.7336
lhand -21.0591 57.0398
lfingers 7.12502
lthumb 5.31727 446.953
rfemur -15.0497 -1.03512 27.8565
rtibia 35.6649
rfoot -23.8997 -15.7666
rtoes 5.21216
lfemur -32.2991 8.47402 -7.9494
ltibia 27.0987
lfoot 7.12569 6.0049
ltoes 1.58457
1321
root -1.89911 16.8188 4.8839 -560.543 98.2513 -563.277
lowerback -2.07935 2.28809 -0.175147
upperback -1.13822 3.07546 2.09515
thorax -0.126533 1.55691 2.30142
lowerneck -5.02477 -0.262685 1.85252
upperneck 6.231 -0.269466 -2.97078
head 2.86479 -0.184815 -1.29497
rclavicle 7.62215e-015 2.54444e-014
rhumerus -7.74292 4.32567 -106.614
rradius 60.0361
rwrist -1.48366
rhand 138.267 176.249
rfingers 7.12502
rthumb -14.6384 -33.2143
lclavicle 7.62215e-015 2.54444e-014
lhumerus 1.83637 -13.1303 76.1347
lradius 63.4364
lwrist 47.8716
lhand -20.4061 56.3896
lfingers 7.12502
lthumb 5.94771 446.286
rfemur -15.561 -1.50615 26.4994
rtibia 37.2866
rfoot -24.6278 -16.3773
rtoes 3.7079
lfemur -32.348 8.40623 -9.85569
ltibia 27.0697
lfoot 5.88511 5.4275
ltoes -0.382743
1322
root -1.7612 16.8048 4.81628 -556.258 96.9483 -558.993
lowerback -2.11588 2.21285 -0.798811
upperback -1.32333 2.98632 1.86332
thorax -0.311668 1.51664 2.40752
lowerneck -5.17043 -0.502611 1.63289
upperneck 6.59951 -0.562079 -2.9979
head 3.00917 -0.337216 -1.28225
rclavicle -1.55021e-014 -2.8625e-014
rhumerus -8.09269 2.48036 -106.294
rradius 58.9259
rwrist -0.983751
rhand 138.123 177.267
rfingers 7.12502
rthumb -14.7765 -32.1863
lclavicle -1.55021e-014 -2.8625e-014
lhumerus 2.54852 -12.7945 78.1376
lradius 62.3412
lwrist 47.1558
lhand -20.7993 56.1836
lfingers 7.12502
lthumb 5.56812 446.09
rfemur -16.0674 -2.26685 25.0381
rtibia 39.1543
rfoot -25.3874 -17.0555
rtoes 2.66803
lfemur -32.2063 7.82195 -11.7799
ltibia 26.8505
lfoot 4.78076 5.48739
ltoes 2.83299
1323
root -1.62368 16.7879 4.74906 -550.91 95.6014 -553.579
lowerback -2.10928 2.15651 -1.33599
upperback -1.48563 2.91956 1.6019
thorax -0.491903 1.48813 2.43437
lowerneck -5.10335 -0.794895 1.53266
upperneck 6.66813 -0.930994 -3.13861
head 3.01007 -0.526911 -1.32575
rclavicle -3.59055e-015 1.59028e-015
rhumerus -8.5054 0.617449 -105.688
rradius 58.2097
rwrist -1.10947
rhand 138.216 177.964
rfingers 7.12502
rthumb -14.6873 -31.4954
lclavicle -3.59055e-015 1.59028e-015
lhumerus 3.34476 -12.2712 80.5707
lradius 61.1735
lwrist 46.8078
lhand -22.1264 56.6739
lfingers 7.12502
lthumb 4.28673 446.611
rfemur -16.5266 -3.11897 23.6897
rtibia 41.1797
rfoot -26.0756 -17.8878
rtoes 1.61902
lfemur -31.9721 6.90959 -13.5166
ltibia 26.8296
lfoot 3.41773 5.58783
ltoes 4.64351
1324
root -1.49041 16.7653 4.67438 -542.686 94.3519 -545.319
lowerback -2.07291 2.15413 -1.66985
upperback -1.67066 2.91998 1.23399
thorax -0.699491 1.49257 2.23741
lowerneck -5.28823 -1.10881 1.33187
upperneck 7.05871 -1.33332 -3.03332
head 3.16878 -0.729569 -1.27996
rclavicle -1.78223e-014 -1.0138e-014
rhumerus -9.06008 -1.23653 -104.916
rradius 57.9136
rwrist -1.87243
rhand 138.361 178.901
rfingers 7.12502
rthumb -14.547 -30.5691
lclavicle -1.78223e-014 -1.0138e-014
lhumerus 4.07609 -11.5751 83.3234
lradius 59.984
lwrist 46.3481
lhand -21.9222 56.2946
lfingers 7.12502
lthumb 4.48391 446.227
rfemur -17.1002 -4.01223 22.4258
rtibia 43.3581
rfoot -26.2937 -18.7378
rtoes 1.39432
lfemur -31.9038 6.01745 -15.1862
ltibia 27.2384
lfoot 1.78082 5.16959
ltoes 2.78135
1325
root -1.36263 16.7365 4.59251 -532.111 93.3769 -534.632
lowerback -1.93597 2.21265 -1.67312
upperback -1.81895 2.99447 0.862256
thorax -0.911964 1.53072 1.84919
lowerneck -5.45456 -1.42603 1.26169
upperneck 7.37006 -1.74539 -3.0264
head 3.29781 -0.936887 -1.29003
rclavicle 4.75592e-014 1.88845e-014
rhumerus -9.65467 -2.89249 -104.014
rradius 57.8897
rwrist -2.8761
rhand 138.327 180.1
rfingers 7.12502
rthumb -14.58 -29.3679
lclavicle 4.75592e-014 1.88845e-014
lhumerus 4.70897 -10.9717 86.2326
lradius 58.9357
lwrist 46.1024
lhand -21.2297 54.7946
lfingers 7.12502
lthumb 5.15258 444.712
rfemur -17.7594 -4.80685 21.4125
rtibia 45.7809
rfoot -25.7976 -19.6029
rtoes 2.4771
lfemur -31.7413 5.39627 -16.6374
ltibia 27.801
lfoot 0.0874816 4.59533
ltoes 1.1432
1326
root -1.24289 16.702 4.50888 -519.141 92.6202 -521.417
lowerback -1.68048 2.26869 -1.47326
upperback -1.87002 3.06078 0.563233
thorax -1.08298 1.56078 1.41945
lowerneck -5.59329 -1.68559 1.16608
upperneck 7.55476 -2.08194 -3.01219
head 3.38081 -1.10693 -1.28852
rclavicle -1.12065e-014 3.97569e-016
rhumerus -10.0394 -4.16645 -102.991
rradius 57.9109
rwrist -3.81483
rhand 138.117 181.044
rfingers 7.12502
rthumb -14.7826 -28.4086
lclavicle -1.12065e-014 3.97569e-016
lhumerus 5.21946 -10.5273 89.1671
lradius 58.102
lwrist 45.9695
lhand -24.5556 54.6215
lfingers 7.12502
lthumb 1.94081 444.592
rfemur -18.577 -5.50268 20.6399
rtibia 48.6415
rfoot -24.7979 -20.4876
rtoes 3.95215
lfemur -31.3496 5.1911 -17.9239
ltibia 28.2547
lfoot -1.24466 3.78227
ltoes -1.74648
